<svg xmlns="http://www.w3.org/2000/svg" viewBox="0 0 320 80" width="320" height="80">
  <defs>
    <linearGradient id="chemtech-c-grad" x1="0%" y1="0%" x2="100%" y2="100%">
      <stop offset="0%" stop-color="#3D4EB3" />
      <stop offset="100%" stop-color="#2B3A8F" />
    </linearGradient>
  </defs>

  <!-- 5 Brand Colored Accent Dots arched over top -->
  <circle cx="16" cy="14" r="4.5" fill="#F37021" />
  <circle cx="28" cy="8.5" r="4.5" fill="#ED1C24" />
  <circle cx="41" cy="6" r="4.5" fill="#92278F" />
  <circle cx="54" cy="8.5" r="4.5" fill="#00A896" />
  <circle cx="66" cy="14" r="4.5" fill="#FBB03B" />

  <!-- Stylized C Icon Mark: Thick circular open arc with arrow dynamic styling -->
  <path d="M 60 32 
           C 54 25, 44 23, 34 25 
           C 21 29, 13 40, 15 52 
           C 17 64, 29 72, 42 71 
           C 52 70, 61 63, 64 53
           L 50 53
           C 48 58, 43 61, 38 60.5
           C 30 60, 25 53, 26 46
           C 27 38, 33 34, 41 34.5
           C 45 35, 49 37, 51 40
           Z" 
        fill="url(#chemtech-c-grad)" />

  <!-- Inner Arrow Head / Flow Mark -->
  <polygon points="62,27 50,33 59,42" fill="#2B3A8F" />

  <!-- Wordmark 'hemtech' -->
  <text x="76" y="58" font-family="'Plus Jakarta Sans', 'Segoe UI', sans-serif" font-weight="800" font-size="38" fill="#2B3A8F" letter-spacing="-1">hemtech</text>

  <!-- Subtitle 'INDIA' -->
  <text x="80" y="74" font-family="'Plus Jakarta Sans', 'Segoe UI', sans-serif" font-weight="700" font-size="12" fill="#475569" letter-spacing="4">INDIA</text>
</svg>
